<svg width="153" height="139" viewBox="0 0 153 139" fill="none" xmlns="http://www.w3.org/2000/svg">
<circle cx="75.9769" cy="73.4077" r="30.3392" transform="rotate(-120 75.9769 73.4077)" fill="#C9CDD1" stroke="#7B7B7B"/>
<circle cx="73.6378" cy="69.3563" r="30.3392" transform="rotate(-120 73.6378 69.3563)" fill="#C9CDD1" stroke="#7B7B7B"/>
<circle cx="74.6262" cy="71.1313" r="21.3077" transform="rotate(-120 74.6262 71.1313)" fill="#C9CDD1" stroke="#7B7B7B"/>
<circle cx="72.6929" cy="67.7824" r="21.3077" transform="rotate(-120 72.6929 67.7824)" fill="#C9CDD1" stroke="#7B7B7B"/>
<path d="M38.2898 63.3459L10.2898 66.3459L10.2898 75.8459L38.2898 79.3459L38.2898 63.3459Z" fill="#C9CDD1" stroke="#7B7B7B"/>
<path d="M38.3333 57.3878L10.3333 60.3878L10.3333 69.8878L38.3333 73.3878L38.3333 57.3878Z" fill="#C9CDD1" stroke="#7B7B7B"/>
<path d="M116.212 80.7744L144.154 77.2763L143.985 67.7778L115.927 64.7769L116.212 80.7744Z" fill="#C9CDD1" stroke="#7B7B7B"/>
<path d="M116.345 76.9436L144.287 73.4455L144.118 63.947L116.06 60.9461L116.345 76.9436Z" fill="#C9CDD1" stroke="#7B7B7B"/>
</svg>
